@startuml

class Cancion {

}

class Audio {

}

class Artista {

}

class Playlist {

}

class Album {

}

class Usuario {

}

class PlataformaMusical {

}

class Suscripcion {

}

class Genero {

}

class HistorialReproduccion {

}

class Monetizacion {

}

class Pago {

}

class Ranking {

}

class Reproductor {

}

' Relaciones principales
Cancion *-- Audio
Playlist o-- Cancion
Album o-- Cancion
Usuario o-- HistorialReproduccion

Artista --> Cancion
Artista --> Artista
Usuario --> Playlist
Usuario --> Suscripcion
Cancion --> Genero
PlataformaMusical --> Usuario
PlataformaMusical --> Monetizacion
Ranking --> Cancion
Monetizacion --> Pago

Reproductor ..> Cancion

@enduml