@startuml ClasesDecision 

title "Diagrama de clases de una decisión"


class Decisión {

}

class Criterio {

}

class Opción {

} 

class Experiencia {

}

class Resultado {

}
 

class Contexto {

}

class Evento {

}



Decisión *-- Opción: tiene
Decisión o-- Criterio: usa
Decisión *-- Resultado: produce
Resultado --> Experiencia: genera
Decisión --> Contexto: depende de
Experiencia --> Criterio: ajusta
Evento ..> Decisión: desencadena
Evento --> Contexto: ocurre en




@enduml